<svg id="wave" style="transform:rotate(180deg); transition: 0.3s" viewBox="0 0 1440 490" version="1.1" xmlns="http://www.w3.org/2000/svg"><defs><linearGradient id="sw-gradient-0" x1="0" x2="0" y1="1" y2="0"><stop stop-color="rgba(25.538, 178.578, 209.784, 1)" offset="0%"></stop><stop stop-color="rgba(0, 203.172, 255, 1)" offset="100%"></stop></linearGradient></defs><path style="transform:translate(0, 0px); opacity:1" fill="url(#sw-gradient-0)" d="M0,343L48,351.2C96,359,192,376,288,343C384,310,480,229,576,236.8C672,245,768,343,864,343C960,343,1056,245,1152,196C1248,147,1344,147,1440,171.5C1536,196,1632,245,1728,277.7C1824,310,1920,327,2016,351.2C2112,376,2208,408,2304,351.2C2400,294,2496,147,2592,114.3C2688,82,2784,163,2880,187.8C2976,212,3072,180,3168,196C3264,212,3360,278,3456,294C3552,310,3648,278,3744,294C3840,310,3936,376,4032,400.2C4128,425,4224,408,4320,334.8C4416,261,4512,131,4608,138.8C4704,147,4800,294,4896,310.3C4992,327,5088,212,5184,155.2C5280,98,5376,98,5472,106.2C5568,114,5664,131,5760,138.8C5856,147,5952,147,6048,155.2C6144,163,6240,180,6336,196C6432,212,6528,229,6624,228.7C6720,229,6816,212,6864,204.2L6912,196L6912,490L6864,490C6816,490,6720,490,6624,490C6528,490,6432,490,6336,490C6240,490,6144,490,6048,490C5952,490,5856,490,5760,490C5664,490,5568,490,5472,490C5376,490,5280,490,5184,490C5088,490,4992,490,4896,490C4800,490,4704,490,4608,490C4512,490,4416,490,4320,490C4224,490,4128,490,4032,490C3936,490,3840,490,3744,490C3648,490,3552,490,3456,490C3360,490,3264,490,3168,490C3072,490,2976,490,2880,490C2784,490,2688,490,2592,490C2496,490,2400,490,2304,490C2208,490,2112,490,2016,490C1920,490,1824,490,1728,490C1632,490,1536,490,1440,490C1344,490,1248,490,1152,490C1056,490,960,490,864,490C768,490,672,490,576,490C480,490,384,490,288,490C192,490,96,490,48,490L0,490Z"></path></svg>